<svg viewBox="0 0 600 400" xmlns="http://www.w3.org/2000/svg">
<g transform="translate(48, 364)">
<g>
<path d="M0,0 L0,0 L5.2525253,-0.03469034 L10.505051,-0.13876136 L15.757576,-0.31221303 L21.010101,-0.5550454 L26.262627,-0.8672584 L31.515152,-1.2488521 L36.767677,-1.6998266 L42.020203,-2.2201817 L47.272728,-2.8099174 L52.525253,-3.4690337 L57.77778,-4.1975307 L63.030304,-4.9954085 L68.28283,-5.862667 L73.535355,-6.7993064 L78.78788,-7.805326 L84.040405,-8.880727 L89.29293,-10.025508 L94.545456,-11.23967 L99.79798,-12.5232115 L105.05051,-13.876135 L110.30303,-15.298439 L115.55556,-16.790123 L120.80808,-18.351189 L126.06061,-19.981634 L131.31313,-21.681461 L136.56566,-23.450668 L141.81818,-25.289257 L147.07071,-27.197226 L152.32323,-29.174574 L157.57576,-31.221304 L162.82828,-33.337414 L168.08081,-35.522907 L173.33333,-37.77778 L178.58586,-40.10203 L183.83838,-42.495663 L189.09091,-44.95868 L194.34343,-47.491074 L199.59596,-50.092846 L204.84848,-52.764004 L210.10101,-55.50454 L215.35353,-58.314457 L220.60606,-61.193756 L225.85858,-64.14243 L231.11111,-67.16049 L236.36363,-70.24793 L241.61617,-73.404755 L246.86868,-76.63096 L252.12122,-79.92654 L257.37375,-83.291504 L262.62625,-86.725845 L267.87878,-90.22957 L273.13132,-93.80267 L278.38385,-97.44516 L283.63635,-101.15703 L288.8889,-104.93827 L294.14142,-108.7889 L299.39395,-112.70891 L304.64645,-116.698296 L309.899,-120.757065 L315.15152,-124.885216 L320.40405,-129.08275 L325.65656,-133.34966 L330.9091,-137.68594 L336.16162,-142.09163 L341.41415,-146.56668 L346.66666,-151.11111 L351.9192,-155.72493 L357.17172,-160.40813 L362.42426,-165.16069 L367.67676,-169.98265 L372.9293,-174.874 L378.18182,-179.83472 L383.43436,-184.8648 L388.68686,-189.9643 L393.9394,-195.13315 L399.19193,-200.37138 L404.44446,-205.67902 L409.69696,-211.05602 L414.9495,-216.5024 L420.20203,-222.01816 L425.45456,-227.6033 L430.70706,-233.25783 L435.9596,-238.98174 L441.21213,-244.77502 L446.46466,-250.6377 L451.71716,-256.56973 L456.9697,-262.57117 L462.22223,-268.64197 L467.47476,-274.78217 L472.72726,-280.99173 L477.9798,-287.2707 L483.23233,-293.61902 L488.48486,-300.03674 L493.73737,-306.52383 L498.9899,-313.0803 L504.24243,-319.70615 L509.49496,-326.4014 L514.7475,-333.16602 L520,-340" fill="none" stroke="#35C788" stroke-width="2"/>
</g>
<g>
<g>
<line stroke="black" stroke-width="1" x1="0" x2="0" y1="0" y2="10"/>
<line stroke="black" stroke-width="1" x1="105.05050505050505" x2="105.05050505050505" y1="0" y2="10"/>
<line stroke="black" stroke-width="1" x1="210.1010101010101" x2="210.1010101010101" y1="0" y2="10"/>
<line stroke="black" stroke-width="1" x1="315.1515151515151" x2="315.1515151515151" y1="0" y2="10"/>
<line stroke="black" stroke-width="1" x1="420.2020202020202" x2="420.2020202020202" y1="0" y2="10"/>
</g>
<line stroke="black" stroke-width="1" x1="0" x2="520" y1="0" y2="0"/>
<g>
<text font-size="12" text-anchor="middle" x="0" y="20">
0
</text>
<text font-size="12" text-anchor="middle" x="105.05050505050505" y="20">
20
</text>
<text font-size="12" text-anchor="middle" x="210.1010101010101" y="20">
40
</text>
<text font-size="12" text-anchor="middle" x="315.1515151515151" y="20">
60
</text>
<text font-size="12" text-anchor="middle" x="420.2020202020202" y="20">
80
</text>
</g>
<text font-size="12" text-anchor="middle" x="260" y="30">

</text>
</g>
<g>
<g>
<line stroke="black" stroke-width="1" x1="0" x2="-10" y1="0" y2="0"/>
<line stroke="black" stroke-width="1" x1="0" x2="-10" y1="-69.3806754412815" y2="-69.3806754412815"/>
<line stroke="black" stroke-width="1" x1="0" x2="-10" y1="-138.761350882563" y2="-138.761350882563"/>
<line stroke="black" stroke-width="1" x1="0" x2="-10" y1="-208.1420263238445" y2="-208.1420263238445"/>
<line stroke="black" stroke-width="1" x1="0" x2="-10" y1="-277.522701765126" y2="-277.522701765126"/>
</g>
<line stroke="black" stroke-width="1" x1="0" x2="0" y1="0" y2="-340"/>
<g>
<text dominant-baseline="middle" font-size="12" text-anchor="end" x="-15" y="0">
0
</text>
<text dominant-baseline="middle" font-size="12" text-anchor="end" x="-15" y="-69.3806754412815">
2000
</text>
<text dominant-baseline="middle" font-size="12" text-anchor="end" x="-15" y="-138.761350882563">
4000
</text>
<text dominant-baseline="middle" font-size="12" text-anchor="end" x="-15" y="-208.1420263238445">
6000
</text>
<text dominant-baseline="middle" font-size="12" text-anchor="end" x="-15" y="-277.522701765126">
8000
</text>
</g>
<text font-size="12" text-anchor="middle" transform="rotate(-90 -30 -170)" x="-30" y="-170">

</text>
</g>
</g>
</svg>